v -0.0537562 0.324976 -0.265362
v 0.0646404 0.361614 -0.275291
v -0.107626 0.317622 -0.191434
v -0.0249362 0.33707 -0.211345
v -0.0010511 0.331284 -0.337926
v 0.0333847 0.347061 -0.292979
v -0.059339 0.331757 -0.16257
v -0.0127812 0.331974 -0.255829
v -0.0663664 0.317916 -0.208938
v 0.0171936 0.346698 -0.236519
v -0.0906639 0.283749 -0.304749
v 0.00378324 0.349505 -0.18839
v -0.20637 0.30674 -0.0536008
v -0.195418 0.299106 -0.102936
v -0.151525 0.302523 -0.13069
v -0.141157 0.313998 -0.0795582
v -0.165756 0.313358 -0.0502315
v -0.00347789 0.316662 -0.496357
v -0.123993 0.232086 -0.326487
v -0.0864377 0.294478 -0.434582
v -0.204015 0.310959 0.020028
v -0.183742 0.241435 -0.359014
v 0.067614 0.340832 -0.579115
v -0.162773 0.322605 -0.221964
v -0.130019 0.301232 -0.266543
v 0.0279522 0.376396 -0.413481
v -0.248424 0.274601 -0.300486
v -0.107391 0.343105 -0.199041
v -0.152211 0.331154 -0.188988
v -0.052435 0.309966 -0.667481
v -0.177828 0.322236 -0.270917
v -0.000931906 0.309434 -0.652822
v -0.342152 0.317744 -0.186925
v -0.164237 0.338125 -0.124481
v -0.489672 0.291537 -0.236489
v -0.0533607 0.33575 -0.738189
v -0.174095 0.339694 -0.225059
v -0.0261074 0.380634 -0.358464
v -0.377585 0.274466 -0.365891
v -0.302503 0.331085 -0.185242
v -0.303593 0.317721 -0.235345
v -0.253567 0.327506 -0.202015
v -0.276301 0.246626 -0.781037
v -0.341791 0.359636 -0.292833
v -0.283398 0.337178 -0.452061
v -0.36331 0.369609 -0.240221
v -0.255469 0.367142 -0.299877
v -0.334605 0.378384 -0.0506242
v -0.296743 0.365406 -0.236765
v -0.201104 0.353204 -0.394525
v -0.309183 0.34308 -0.360513
v -0.263603 0.324501 -0.529111
v -0.254517 0.351396 -0.364007
v -0.0711899 0.384696 -0.486818
v -0.298853 0.356257 -0.305338
v -0.351257 0.247606 -0.571067
v -0.502028 0.356228 -0.47698
v -0.458192 0.271809 -0.61295
v -0.434411 0.305788 -0.482545
v -0.247827 0.383805 -0.226852
v -0.612529 0.277411 -0.643794
v -0.167937 0.335885 -0.769173
v -0.117818 0.355031 -0.515179
v -0.296375 0.288374 -0.575953
v -0.148459 0.281505 -0.870292
v -0.233392 0.29452 -0.803324
v -0.597342 0.376239 -0.211159
v -0.206672 0.370844 -0.342509
v -0.216109 0.383989 -0.377489
v -0.344816 0.398632 -0.152036
v -0.393249 0.396342 -0.17067
v -0.209872 0.268145 -0.772639
v -0.0408851 0.373029 -0.64034
v -0.282159 0.300603 -0.714897
v -0.166883 0.302806 -0.759168
v -0.403199 0.315103 -0.913848
v -0.446501 0.367403 -0.613106
v -0.339754 0.346215 -0.718281
v -0.366526 0.397305 -0.5432
v -0.500273 0.209049 -0.839962
v -0.430747 0.244519 -1.02066
v -0.335623 0.414597 -0.281512
v -0.494366 0.424365 -0.462
v -0.387967 0.410215 -0.307641
v -0.233039 0.293881 -1.19528
v -0.201835 0.387403 -0.643331
v -0.159979 0.425482 -0.862924
v -0.353556 0.462091 -0.8722
v -0.321865 0.466804 -0.622242
v -0.416666 0.465367 -0.847081
v -0.260291 0.446274 -0.819794
v -0.175739 0.406174 -1.05755
v 0.111752 0.409186 -1.04525
v 0.03559 0.41972 -0.992266
v -0.0418921 0.427467 -0.933372
v 0.0794369 0.245708 -1.20767
v 0.195645 0.315157 -1.23556
v 0.163825 0.430755 -0.977878
v -0.0835357 0.230953 -1.18655
v 0.139908 0.48279 -0.84025
v -0.00522 0.238543 -1.20945
v 0.0843126 0.451568 -0.900211
v -0.183781 0.306229 -1.36863
v 0.170674 0.180399 -1.17325
v -0.0299321 0.33955 -1.07776
v -0.304975 0.41959 -0.982771
v 0.102247 0.181213 -1.17476
v -0.518044 0.503716 -0.697841
v -0.170713 0.37844 -1.27909
v -0.503912 0.526338 -0.524657
v -0.114527 0.458603 -0.797607
v 0.143813 0.403872 -1.31472
v 0.27855 0.402169 -1.33717
v -0.307434 0.272869 -1.20592
v -0.116078 0.17356 -1.278
v -0.403676 0.268505 -1.15948
v -0.436173 0.20969 -1.12539
v -0.29199 0.17679 -1.1922
v -0.0134438 0.482405 -0.970105
v 0.241315 0.937169 -1.3273
v -0.122605 0.484007 -0.910938
v -0.341424 0.50982 -1.11769
v -0.412349 0.518631 -1.09332
v -0.51043 0.456604 -1.36973
v -0.147932 0.511512 -1.00377
v -0.322649 0.512572 -0.869492
v -0.0816091 0.48997 -1.04258
v -0.334159 0.284027 -1.30258
v -0.510881 0.54326 -0.947026
v -0.498058 0.557716 -0.81029
v 0.164875 0.161622 -1.39703
v -0.557533 1.08973 -0.608408
v 0.251782 0.509121 -1.20406
v -0.52738 0.56807 -0.761802
v -0.277913 0.170918 -1.2948
v -0.262792 0.172193 -1.31376
v -0.319944 0.221136 -1.3103
v -0.385019 0.341888 -1.3572
v -0.392453 0.242081 -1.2843
v 0.243949 0.378081 -1.44388
v -0.253407 0.483155 -1.46176
v -0.0437521 0.19419 -1.35561
v -0.0141207 0.569495 -0.957384
v 0.600682 0.996796 -1.32564
v -0.214868 0.173158 -1.31492
v -0.279846 0.31063 -1.34043
v -0.228367 0.417978 -1.36198
v -0.200787 0.540002 -1.13586
v 0.148708 0.545912 -0.997978
v 0.345962 0.502606 -1.11506
v 0.241005 0.541795 -1.00946
v 0.536379 0.344944 -1.32842
v 0.518656 0.0473977 -1.232
v 0.601292 0.128413 -1.2205
v 0.779746 0.31412 -1.19457
v 0.452822 0.0571674 -1.26137
v 0.675767 0.306384 -1.24998
v 0.643775 0.471235 -1.43973
v -0.00108516 1.10866 -1.06061
v 0.36218 0.0519599 -1.2928
v 0.533662 0.531633 -1.15023
v 0.630513 0.507645 -0.979957
v 0.597236 0.553479 -0.868028
v 0.604742 0.534752 -1.08842
v 0.426386 0.362949 -1.36187
v 0.421396 0.115323 -1.27761
v 0.337138 0.547654 -0.993945
v 0.252299 0.141155 -1.3304
v 0.332726 0.301064 -1.36243
v 0.314915 0.208279 -1.35277
v 0.293745 0.563611 -1.17803
v 0.790229 0.478653 -1.09101
v 0.517447 0.561471 -0.901224
v -0.0526083 0.224841 -1.53192
v 0.388132 0.492003 -1.41791
v 0.509821 0.247593 -1.30552
v 0.24703 0.262493 -1.35287
v 0.281507 0.408729 -1.37983
v 0.189674 0.199166 -1.34199
v 0.0349608 0.54014 -1.44487
v 0.685149 0.514788 -0.932793
v 0.121132 0.592072 -1.12101
v 0.461156 0.549745 -1.19611
v 0.612796 0.0665961 -1.19512
v 0.417787 0.272092 -1.34738
v 0.686897 0.132035 -1.17529
v 0.167086 0.108312 -1.32073
v 0.660589 0.199385 -1.21943
v 0.31948 0.554161 -1.0789
v 0.227288 0.555735 -1.04838
v 0.181734 0.370246 -1.2779
v 0.22937 0.264561 -1.25256
v 0.334383 0.579287 -0.999766
v 0.276123 0.624376 -0.875548
v 0.244833 0.591483 -0.950936
v 0.108542 0.50769 -1.3856
v -0.238264 0.0808848 -1.11267
v -0.00911957 0.550126 -0.98851
v -0.248025 0.274518 -1.17246
v -0.139337 0.119211 -1.14401
v -0.233101 0.575473 -0.799511
v -0.247497 0.157815 -1.1258
v -0.0435595 0.3674 -1.24398
v -0.139066 0.230997 -1.1799
v -0.228897 0.569617 -1.04773
v 0.0391429 0.567823 -0.920304
v 0.153639 0.5936 -0.927293
v 0.10746 0.261364 -1.24805
v -0.0977913 0.164006 -1.1851
v -0.294694 0.513023 -1.34282
v -0.405269 0.593395 -0.913919
v 0.439616 1.07105 -1.19289
v -0.329719 0.553761 -1.17423
v -0.222272 0.58115 -0.810451
v -0.147878 0.467237 -1.15706
v -0.104094 0.171033 -1.21969
v -0.0401327 0.278409 -1.25883
v 0.142551 0.307921 -1.26023
v 0.0432554 0.263082 -1.26378
v -0.12501 0.0931209 -1.18966
v -0.0551947 0.381354 -1.28836
v 0.163011 0.525475 -1.31953
v 0.0481546 0.454199 -1.31634
v -0.190247 0.1425 -1.19443
v -0.0178774 0.198342 -1.23397
v 0.0807321 0.21661 -1.23373
v 0.154856 0.235727 -1.26299
v -0.394766 0.568101 -0.92945
v -0.324327 0.526969 -1.10642
v -0.177336 0.549555 -0.991263
v 0.179279 0.591365 -1.14162
v -0.0375299 0.532301 -1.14377
v 0.00508519 0.613294 -0.921606
v -0.434089 0.141545 -1.06673
v -0.425052 0.579641 -0.646776
v -0.521942 0.576729 -0.879395
v -0.625514 0.603993 -0.684581
v 0.0382615 0.10182 -1.22752
v -0.157613 0.094663 -1.18975
v -0.726325 0.263811 -0.998843
v -0.665891 0.298338 -1.04922
v -0.546277 0.558005 -0.718538
v -0.75675 0.364402 -1.02632
v -0.686167 0.186633 -1.00727
v -0.209582 0.626304 -0.877736
v -0.757687 0.0763126 -1.07488
v -0.63953 0.0889921 -1.02704
v -0.300041 0.415307 -1.40828
v -0.38828 0.0988011 -1.23459
v -0.557457 0.562938 -0.814406
v -0.428196 0.0221693 -1.55994
v -0.421543 0.230788 -1.47393
v -1.02946 0.407074 -0.934792
v -1.12042 0.296551 -0.504276
v -1.08616 0.216715 -0.538812
v -1.00096 0.54175 -0.375297
v -0.846777 0.597264 -0.101454
v -1.13064 0.292805 -0.401805
v -0.890424 0.577346 -0.228592
v -1.09614 0.212701 -0.44685
v -1.16539 0.498851 -0.570298
v -1.17618 0.475409 -0.452829
v -0.793021 0.589319 -0.259687
v -0.789264 0.60668 -0.417262
v -1.48233 -0.0927267 -0.856613
v -0.836869 0.595627 -0.157788
v -1.01927 0.531261 -0.27191
v -1.35507 -0.0145348 -0.607883
v -1.33982 -0.123086 -0.692456
v -0.885944 0.56867 -0.310333
v -1.34006 0.0248378 -0.70184
v -1.1482 0.092785 -0.461108
v -1.43024 -0.0510448 -0.468296
v -1.1786 0.225845 -0.938514
v -1.15759 0.51556 -0.162271
v -1.25662 0.457436 -0.316146
v -1.36048 -0.189879 -0.58105
v -0.962534 0.566702 -0.666269
v -0.746973 0.614499 -0.0838029
v -0.878304 0.0920438 -1.22087
v -1.20571 -0.0231002 -0.975477
v -1.09611 -0.0163584 -1.10566
v -0.991275 0.0975389 -0.748335
v -0.663703 0.109836 -0.79947
v -0.681369 0.639618 -0.115509
v -0.676521 0.0356274 -0.757629
v -0.785699 0.104477 -1.4246
v -0.863321 -0.0894038 -1.24977
v -0.813024 0.0578035 -0.935642
v -1.03544 0.575461 -0.210933
v -1.18495 0.328465 -0.317361
v -1.15664 0.247295 -0.356115
v -0.977102 0.597321 -0.14575
v -1.15137 0.243693 -0.262909
v -0.904579 0.612871 -0.0787556
v -1.17778 0.322845 -0.144849
v -0.799395 0.137667 -0.71034
v -0.971322 0.596651 -0.272327
v -1.23636 0.529427 -0.371793
v -1.23704 0.476849 -0.254858
v -0.830781 0.13678 -0.888805
v -0.991601 0.129958 -1.2735
v -0.806252 0.625474 -0.125561
v -1.44155 0.0599174 -0.474764
v -1.33186 0.00441539 -0.765915
v -1.59863 -0.0655166 -0.612222
v -1.22652 0.423036 -0.140314
v -1.44433 -0.0802464 -0.454219
v -0.832789 0.641643 -0.286707
v -1.25768 0.00858006 -0.922028
v -1.44441 0.012234 -0.377725
v -1.12548 0.0902946 -0.561188
v -1.03893 -0.0608373 -1.09037
v -1.17986 0.337588 -0.228922
v -1.20849 0.422933 -0.0521396
v -1.30439 0.256575 -0.729419
v -0.881964 0.136883 -1.3411
v -1.44187 -0.167621 -0.695562
v -0.878537 0.619143 -0.212496
v -1.1651 0.442357 -0.753449
v -1.04781 0.560675 -0.101713
v -1.04165 0.591137 -0.507279
v -1.09414 0.415046 -0.580243
v -0.719606 0.658565 -0.447462
v -0.903342 0.0247249 -1.23178
v -0.867259 0.0386246 -1.32782
v -0.767234 -0.169635 -0.86271
v -0.686824 0.129475 -0.837804
v -1.22283 0.00857576 -1.0092
v -0.692528 0.12012 -1.04361
v -1.11166 0.0136245 -1.14889
v -1.0362 0.276627 -0.83073
v -1.01971 0.42941 -0.810754
v -1.04777 0.101342 -0.767807
v -1.03996 0.44469 -0.988827
v -0.874663 -0.0872888 -1.28036
v -0.953722 0.606387 -0.72433
v -1.20866 0.47459 -0.698472
v -1.01563 0.610945 -0.209065
v -0.986987 0.598405 -0.445894
v -1.09374 0.276624 -0.574525
v -0.943581 0.622979 -0.372847
v -1.15933 0.389184 -0.367534
v -0.782283 0.646967 -0.31825
v -1.13377 0.320336 -0.476739
v -1.17307 0.50345 -0.525764
v -0.914721 0.615268 -0.49606
v -1.14679 0.550012 -0.64164
v -1.13827 0.296144 -0.383057
v -1.48545 -0.0389443 -0.926859
v -1.95039 0.0743923 -0.516586
v -1.34822 0.0887867 -0.758951
v -1.19737 0.463255 -0.310109
v -0.882367 0.623289 -0.420149
v -0.779328 0.655133 -0.473904
v -1.19128 0.4708 -0.238501
v -1.35354 -0.150958 -0.903524
v -0.838232 0.661784 -0.219908
v -0.845812 0.638941 -0.370016
v -0.797711 0.657635 -0.265616
v -1.3607 -0.0493619 -0.740678
v -1.44297 0.0313403 -0.531362
v -1.11993 0.588549 -0.277132
v -1.38671 0.559481 -0.452208
v -1.34603 0.57048 -0.229243
v -1.28012 0.631003 -0.218354
v -1.07414 0.670428 -0.192267
v -0.851823 0.648131 -0.425472
v -0.975253 0.5988 -0.495982
v -0.828752 0.512856 -0.906682
v -0.836379 0.639832 -0.769089
v -1.10069 0.270353 -0.492229
v -1.33565 -0.435275 -0.858227
v -1.39284 -0.548034 -0.825004
v -1.27895 -0.155893 -0.866542
v -1.30376 -0.300991 -0.849151
v -1.15192 0.165085 -0.749633
v -1.87643 -0.146804 -0.921063
v -1.28395 -0.0272156 -0.855841
v -1.54143 0.0709842 -0.743642
v -0.773266 0.702182 -0.469063
v -1.54786 0.124296 -0.564315
v -0.286054 0.0703152 -1.03833
v -0.51945 -0.0290414 -1.57344
v -1.57025 0.0929383 -0.938852
v -0.469406 0.463504 -1.4305
v -0.935713 0.715781 -0.565267
v -0.349211 0.280984 -1.55528
v -0.636336 0.706702 -0.713294
v -0.573864 0.699979 -0.738083
v -1.02187 0.559775 -0.725142
v -0.509397 0.671922 -0.838699
v -0.960324 0.537377 -0.87462
v -1.06876 0.764709 -0.797625
v -0.295627 0.419201 -1.32028
v -0.627602 -0.0800065 -1.86263
v -1.16894 0.764713 -0.772184
v -0.00905538 -0.438094 -1.69856
v 0.0422369 0.266767 -1.37357
v 0.00500228 0.101719 -1.66163
v 0.255346 -0.0401596 -1.93535
v -0.305551 0.0788903 -2.16254
v -0.955452 0.249766 -1.35446
v -0.0544945 0.321742 -1.3825
v -0.00171456 0.406935 -1.40809
v -0.173545 0.397521 -1.38475
v -0.260617 0.298655 -1.33433
v -0.0671143 0.551981 -1.45446
v -0.340014 0.165705 -1.28561
v -0.0731311 0.201618 -1.54426
v 0.271121 0.150264 -1.46834
v 0.137831 0.143434 -1.66901
v -0.336825 0.505411 -1.38141
v -0.634991 -0.209349 -1.79047
v -0.344568 0.737572 -0.977482
v -0.318796 0.716542 -1.04473
v -0.0893311 0.657724 -1.25861
v -0.16196 0.711389 -1.02485
v -0.68014 0.483614 -1.1036
v -0.225776 0.73152 -0.956048
v -0.778148 0.656842 -1.05492
v -0.508996 0.543073 -1.2791
v -0.798205 0.0812374 -1.65752
v -0.529806 0.778905 -1.01084
v -0.587484 0.799058 -0.976465
v -0.725585 0.604174 -1.09459
v -0.630583 0.378011 -1.11441
v -0.249147 0.699144 -1.09509
v -0.594019 0.455154 -1.17689
v -0.838914 -0.179381 -1.66587
v -0.697931 0.78371 -1.08288
v -0.181818 0.521584 -1.52622
v -0.456291 0.631699 -1.46628
v -0.0795126 0.710725 -1.11127
v -0.784233 0.42779 -0.98276
v -0.63417 0.0925245 -1.70065
v -0.809194 0.55836 -1.00789
v -0.589943 0.55896 -1.20707
v -0.757322 0.738418 -1.26397
v -0.177142 -0.18725 -2.24604
v 0.360809 0.406619 -1.61807
v -0.532271 -0.137275 -1.87087
v -0.0353599 0.654836 -1.45937
v -0.606124 0.815287 -0.91892
v -0.960625 0.126433 -1.51446
v -0.604431 0.242577 -1.15324
v -0.675608 0.338199 -1.06438
v -0.296633 0.752295 -0.925591
v 0.0701799 0.616126 -1.48918
v -0.722132 0.296681 -1.02003
v -0.596877 -0.54428 -1.71996
v 0.243912 0.564634 -1.34229
v 0.276211 0.422453 -1.47529
v 0.00191466 0.295567 -1.46916
v 0.141756 0.39082 -1.48627
v -0.411089 0.787801 -1.20558
v -0.521276 0.773436 -1.31263
v 0.0223658 0.633365 -1.36556
v -0.546948 0.727368 -1.53423
v -0.481575 0.814162 -1.16186
v 0.0577616 0.08101 -2.14669
v -0.144231 0.717315 -1.18784
v -0.203625 0.740509 -1.12042
v -0.532307 0.221497 -1.38507
v 0.00832932 0.717244 -1.12376
v -0.0760602 0.152779 -1.44251
v -0.446272 0.041055 -1.96827
v -0.274174 0.540661 -1.4908
v -0.544547 0.591512 -1.36526
v -0.0617042 0.749925 -1.07114
v 0.226191 0.611368 -1.54728
v -0.0671721 0.367391 -1.49572
v -0.0632364 0.502777 -1.53552
v -0.137872 0.76494 -1.02332
v 0.148065 0.660231 -1.36294
v 0.117806 0.52185 -1.60335
v -0.647075 0.535162 -1.2961
v -0.715431 0.725033 -1.2901
v -0.0159687 0.692904 -1.24756
v 0.345885 0.64353 -1.54717
v -0.28904 0.0636461 -1.95973
v -0.519815 0.819212 -1.04653
v -0.381122 0.257418 -1.33814
v -0.518903 0.324364 -1.29049
v -0.66134 0.0805164 -1.84811
v -0.472617 -0.567145 -1.82724
v -0.155313 0.68986 -1.38782
v -0.364869 0.530706 -1.43055
v -0.104635 -0.192766 -2.12825
v -0.713754 0.504359 -1.24293
v -0.654278 0.412909 -1.25482
v -0.194528 -0.613566 -1.96242
v -0.154425 0.634921 -1.67584
v -0.723879 0.620059 -1.25254
v -0.435558 0.324037 -1.34356
v 0.584505 -0.21611 -1.71847
v -0.195918 0.698804 -1.67176
v 0.587825 0.0250802 -1.92915
v 0.654944 -0.30831 -1.65712
v -0.113614 -0.426059 -1.92798
v 0.0166406 0.709277 -1.24141
v -0.214953 0.768136 -1.03664
v -0.598841 0.664116 -1.35107
v -0.00884178 0.741837 -1.12304
v -0.542211 0.641259 -1.4051
v -0.549495 0.505516 -1.3763
v -0.186899 0.754787 -1.31412
v -0.614762 0.543571 -1.31741
v -0.338803 0.571868 -1.48166
v 0.0730354 0.745497 -1.11536
v -0.320422 0.752674 -1.45244
v -0.464374 0.602181 -1.44472
v 0.101875 0.702785 -1.27337
v -0.273403 0.788326 -1.30854
v -0.404343 0.81873 -1.17415
v -0.538685 0.764264 -1.4736
v 0.0727382 0.676734 -1.44421
v -0.0691535 0.678819 -1.66727
v -0.0759912 0.228879 -1.41738
v 0.617833 0.579378 -1.45742
v -0.133639 0.343151 -1.4542
v -0.0668099 0.0548223 -1.94406
v 0.317607 0.596789 -1.67487
v -0.240864 0.373325 -1.44637
v -0.241363 0.243455 -1.39545
v -0.33663 0.388822 -1.41353
v 0.299552 0.695661 -1.12932
v -0.212481 0.0459745 -1.85914
v -0.33289 0.285527 -1.39998
v 0.0994969 0.707742 -1.28258
v -0.457522 0.0437421 -2.14666
v 0.120862 -0.133085 -1.93062
v -0.151038 0.749267 -1.23785
v 0.517103 0.631114 -1.29643
v -0.572813 0.0709404 -2.08418
v 0.0647352 0.494944 -1.5098
v -0.328876 0.786832 -1.11849
v 0.0760627 0.780051 -1.03927
v 0.423666 0.681906 -1.18614
v -0.134217 0.241754 -1.41791
v -0.256316 0.820779 -1.04327
v 0.535612 0.674766 -1.18495
v 0.391283 0.65931 -1.25706
v -0.158493 0.464125 -1.48002
v 0.923091 0.282132 -1.26269
v 0.532632 0.148866 -1.4538
v 0.562871 0.665287 -1.23008
v 0.262799 0.20266 -1.52001
v 0.111864 0.29726 -1.54919
v 0.473633 0.683766 -1.22377
v 0.974291 0.380556 -1.27143
v 0.198393 0.329862 -1.56963
v 0.518695 0.159982 -1.6711
v 0.894953 0.260802 -1.3224
v 0.680665 0.471046 -1.49481
v 0.194873 0.432075 -1.59322
v 0.823648 0.151622 -1.32117
v 0.459641 0.72146 -1.12562
v 0.894499 -0.0195552 -1.88346
v 0.351741 0.540243 -1.5968
v 0.426979 0.699997 -1.40307
v 0.874672 0.458995 -1.40457
v 0.480219 -0.00330208 -1.91999
v 0.807628 0.638257 -1.18575
v 0.544339 0.713191 -1.10614
v 0.249957 0.60704 -1.63096
v 0.232636 0.0289174 -2.12011
v -0.225848 0.272133 -1.87051
v 0.887508 0.572478 -1.5646
v 0.709244 0.63934 -1.38391
v 0.828894 0.562761 -1.29015
v 0.533887 0.628165 -1.6916
v 0.16388 0.573769 -1.61507
v 0.28269 0.715263 -1.20441
v -0.0890985 0.720863 -1.65434
v 0.208323 0.736881 -1.39947
v 0.106805 0.468257 -1.60028
v 0.0319616 0.277638 -1.54349
v 0.674903 0.674578 -1.22387
v 0.389509 -0.61969 -1.98994
v -0.219296 0.392801 -1.79286
v 1.32785 -0.0172 -1.76778
v 0.0153351 0.822833 -1.28975
v 0.84886 -0.601985 -1.79009
v -0.0992968 0.125556 -2.28986
v 0.116858 0.803094 -1.23177
v 0.0161055 0.658988 -1.62519
v 0.103061 0.0602616 -1.56443
v 0.734701 0.471323 -1.49387
v 0.629397 0.399575 -1.5166
v 0.593018 0.283311 -1.49501
v 1.02591 0.354859 -1.31162
v 0.19506 -0.564394 -2.23093
v 0.9188 0.00460683 -1.89351
v 0.640099 -0.00288391 -2.14365
v 0.430744 0.0233595 -1.55377
v 0.386729 0.281956 -1.6011
v 0.852849 0.0778014 -2.2993
v 0.728534 0.153605 -1.54405
v 0.506669 0.374658 -1.88469
v 1.27285 0.49546 -1.1905
v 1.1663 -0.595052 -2.07851
v 0.797756 -0.688233 -2.40904
v 0.289304 0.386533 -1.62755
v 0.415885 0.383247 -1.81961
v 0.355308 0.520564 -1.37325
v 0.415375 0.129935 -1.69802
v 0.64832 0.77251 -1.29047
v 1.16585 -0.737105 -2.04221
v 1.43288 0.514093 -0.807158
v 1.60998 0.634979 -0.707885
v 1.43231 0.383643 -0.62619
v 1.004 0.682413 -0.744282
v 1.32361 0.507304 -0.997739
v 1.35224 0.357134 -0.90488
v 1.19285 0.419908 -1.12975
v 1.40135 0.803233 -0.493779
v 1.29998 0.392789 -0.98503
v 1.27038 0.700792 -0.669768
v 1.27444 0.230861 -0.955304
v 1.25859 0.255641 -1.33412
v 1.22529 0.178492 -1.01693
v 1.14837 0.68371 -0.895706
v 0.856868 1.20215 -1.19261
v 0.771414 0.591567 -1.09184
v 0.979634 0.674499 -1.00726
v 1.03402 0.533572 -1.17986
v 1.41755 0.676814 -0.778255
v 1.40506 0.561628 -0.927171
v 1.07855 0.0601428 -1.21652
v 1.2693 0.135291 -1.32291
v 1.33011 0.160194 -0.791528
v 1.36946 0.18295 -0.639222
v 2.31608 0.100329 -2.02389
v 1.30728 0.186385 -0.884904
v 1.90294 -0.0509415 -1.05454
v 0.891064 0.314081 -1.37328
v 1.45522 0.48673 -0.554819
v 1.7385 0.00641787 -1.39288
v 0.685201 1.22696 -1.37882
v 1.29363 0.113558 -0.966259
v 0.84483 0.398764 -1.09586
v 1.16825 0.651307 -1.16186
v 1.35425 0.258269 -0.831633
v 0.448971 1.72242 -2.06589
v 1.21467 0.546225 -1.14273
v 1.47474 0.695811 -0.615043
v 0.911994 0.601098 -1.05938
v 1.24438 0.700303 -0.781803
v 1.37776 0.345856 -0.732123
v 1.23582 0.301602 -1.01905
v 1.23248 0.210208 -1.09108
v 1.30905 0.350748 -1.07027
v 1.27566 0.16905 -1.02963
v 1.39678 0.531905 -0.997772
v 0.947063 0.684902 -0.880162
v 1.25039 0.457882 -1.178
v 1.09486 0.327464 -1.27265
v 1.23413 0.717505 -0.884631
v 1.1172 0.446081 -1.30293
v 1.11321 0.162194 -1.17249
v 1.34993 0.565573 -1.1259
v 1.06208 0.67508 -1.06718
v 1.16909 0.0915609 -1.479
v 1.57086 0.672824 -0.93926
v 0.878484 0.667825 -1.10536
v 1.40033 0.48312 -0.877135
v 1.17999 -0.010857 -1.37931
v 1.65997 -0.0310906 -1.60862
v 1.31238 0.290706 -1.00364
v 0.996821 0.763813 -0.631239
v 1.25782 0.728872 -0.758467
v 0.495296 1.18368 -1.54893
f 466 115 145
f 532 522 528
f 528 489 532
f 300 353 356
f 300 314 353
f 519 404 521
f 387 371 355
f 624 656 671
f 671 212 624
f 294 296 308
f 285 70 48
f 71 70 285
f 79 77 56
f 59 56 77
f 360 344 285
f 77 64 56
f 310 357 375
f 58 56 59
f 250 130 108
f 108 130 134
f 348 338 320
f 335 253 435
f 369 322 278
f 465 198 232
f 524 146 103
f 147 146 524
f 524 103 147
f 494 426 438
f 464 436 252
f 348 323 278
f 348 278 322
f 157 176 188
f 213 123 229
f 161 534 579
f 466 142 115
f 379 357 310
f 546 160 166
f 166 160 156
f 82 47 53
f 69 47 82
f 191 140 112
f 251 249 252
f 201 126 91
f 77 56 58
f 416 460 482
f 460 416 424
f 456 210 213
f 77 57 59
f 77 58 57
f 57 58 59
f 198 127 119
f 125 119 127
f 115 99 217
f 99 216 217
f 217 216 115
f 549 131 177
f 549 177 548
f 549 548 131
f 548 177 131
f 640 159 645
f 301 240 297
f 139 464 483
f 483 409 139
f 607 401 563
f 607 563 596
f 596 563 401
f 82 53 55
f 55 47 82
f 82 47 49
f 79 56 64
f 79 64 77
f 384 287 336
f 408 223 180
f 405 180 223
f 126 90 91
f 126 91 88
f 91 90 88
f 484 124 429
f 82 70 71
f 407 146 147
f 103 146 407
f 448 444 482
f 527 190 189
f 527 231 190
f 82 49 70
f 127 95 125
f 125 95 121
f 528 522 481
f 588 410 400
f 647 638 617
f 647 617 619
f 571 570 562
f 442 251 384
f 217 219 225
f 504 462 479
f 512 469 422
f 137 114 118
f 550 534 542
f 669 639 631
f 668 639 669
f 669 631 668
f 235 134 130
f 494 438 478
f 483 464 252
f 511 433 512
f 460 456 515
f 557 186 184
f 115 103 145
f 669 621 639
f 621 631 639
f 144 120 550
f 249 251 409
f 391 333 337
f 81 76 241
f 653 618 616
f 651 618 653
f 653 616 651
f 188 162 155
f 155 186 188
f 186 162 188
f 162 186 155
f 468 141 487
f 487 210 468
f 468 210 141
f 111 73 201
f 494 439 431
f 478 439 494
f 478 431 439
f 242 110 108
f 235 110 242
f 242 108 235
f 246 244 240
f 277 269 318
f 318 268 277
f 550 542 539
f 550 539 183
f 417 109 147
f 417 147 215
f 417 215 109
f 215 147 109
f 233 143 206
f 233 206 198
f 206 143 198
f 504 465 501
f 465 479 501
f 236 90 129
f 242 61 108
f 242 108 237
f 375 281 310
f 607 412 605
f 121 95 127
f 127 119 121
f 514 456 457
f 108 61 250
f 409 251 252
f 409 252 136
f 546 176 185
f 511 509 487
f 165 178 453
f 647 628 610
f 647 610 611
f 391 348 387
f 491 446 447
f 455 454 549
f 128 116 139
f 405 223 408
f 225 101 217
f 370 237 371
f 250 237 370
f 548 170 185
f 169 170 548
f 367 319 293
f 279 257 266
f 457 456 438
f 660 551 658
f 658 551 592
f 452 171 133
f 392 130 236
f 227 179 399
f 226 179 227
f 188 154 186
f 558 542 565
f 607 563 600
f 120 527 212
f 226 101 225
f 428 148 213
f 428 205 148
f 407 109 85
f 85 395 407
f 395 109 407
f 395 85 109
f 190 189 150
f 232 127 148
f 215 148 127
f 183 150 171
f 179 168 411
f 411 168 131
f 131 179 411
f 179 131 168
f 251 442 528
f 132 26 38
f 132 69 82
f 207 194 195
f 207 195 100
f 207 100 194
f 194 100 195
f 356 275 314
f 528 442 481
f 528 481 489
f 480 561 452
f 387 278 337
f 589 569 570
f 562 569 589
f 562 570 569
f 667 618 615
f 184 163 162
f 546 166 153
f 166 156 153
f 199 114 122
f 371 237 355
f 314 275 296
f 275 307 296
f 366 300 363
f 237 108 110
f 390 110 235
f 207 98 149
f 106 114 199
f 199 122 106
f 122 114 106
f 548 185 597
f 597 169 548
f 140 455 549
f 407 136 145
f 115 204 99
f 175 165 158
f 151 189 190
f 250 242 237
f 536 471 196
f 657 601 646
f 614 601 657
f 614 646 601
f 597 185 165
f 597 165 591
f 514 213 210
f 514 210 456
f 215 127 125
f 215 125 148
f 671 619 617
f 566 560 523
f 566 523 480
f 480 523 560
f 185 176 165
f 176 152 165
f 434 232 198
f 127 198 232
f 630 554 664
f 599 153 499
f 499 153 184
f 216 99 209
f 209 204 216
f 99 204 209
f 584 499 496
f 191 177 140
f 604 453 552
f 249 118 409
f 249 135 118
f 530 475 513
f 399 208 227
f 547 183 161
f 534 161 183
f 189 151 150
f 177 112 140
f 331 280 274
f 274 280 302
f 499 153 160
f 184 162 186
f 186 154 184
f 667 610 629
f 138 395 413
f 530 458 517
f 189 171 150
f 116 81 117
f 149 100 207
f 450 446 241
f 159 2 26
f 514 462 428
f 213 462 514
f 514 428 213
f 186 162 163
f 186 163 184
f 160 153 156
f 542 183 547
f 529 525 407
f 407 146 529
f 183 542 534
f 475 449 196
f 458 449 475
f 187 168 411
f 179 177 399
f 399 177 131
f 131 177 179
f 150 183 189
f 189 183 171
f 387 347 278
f 508 438 477
f 508 477 429
f 429 477 438
f 355 278 347
f 379 265 357
f 437 421 250
f 177 169 140
f 150 151 190
f 172 155 162
f 172 162 164
f 571 155 172
f 568 400 522
f 412 522 400
f 599 559 594
f 594 498 599
f 600 553 607
f 407 109 146
f 146 109 147
f 491 447 403
f 491 403 280
f 280 403 447
f 482 444 424
f 444 425 424
f 512 488 210
f 210 511 512
f 580 500 398
f 594 599 600
f 323 261 346
f 411 168 160
f 160 187 411
f 187 160 168
f 456 213 416
f 500 489 442
f 436 467 485
f 597 553 605
f 229 123 122
f 229 122 213
f 487 432 497
f 198 418 434
f 434 418 143
f 418 198 143
f 599 496 596
f 496 499 596
f 270 263 259
f 121 119 125
f 207 100 98
f 149 98 100
f 450 80 241
f 450 240 80
f 226 96 101
f 169 177 192
f 192 177 170
f 192 170 169
f 467 436 251
f 219 96 208
f 194 132 159
f 159 26 194
f 344 263 270
f 288 327 451
f 407 147 109
f 109 147 103
f 450 243 435
f 447 243 450
f 447 435 243
f 407 114 128
f 450 241 244
f 504 434 470
f 470 434 462
f 447 419 435
f 129 419 447
f 236 130 90
f 389 110 390
f 216 204 115
f 191 112 177
f 250 90 130
f 231 133 190
f 190 133 171
f 227 107 226
f 96 107 227
f 107 96 226
f 420 214 245
f 217 101 219
f 219 101 96
f 208 96 104
f 227 104 96
f 579 542 164
f 579 164 547
f 547 164 542
f 235 69 132
f 194 26 132
f 392 425 444
f 425 392 236
f 406 147 109
f 382 304 316
f 345 304 382
f 382 316 345
f 214 111 201
f 201 73 214
f 214 73 111
f 529 252 388
f 576 513 475
f 574 513 576
f 576 475 574
f 355 324 264
f 237 324 355
f 470 418 434
f 536 405 455
f 481 467 440
f 533 504 470
f 462 504 533
f 533 470 462
f 603 580 584
f 595 580 603
f 603 584 595
f 210 509 511
f 672 649 619
f 649 628 619
f 654 631 630
f 212 173 163
f 654 639 631
f 631 639 641
f 666 565 625
f 656 565 666
f 667 614 618
f 132 82 110
f 190 171 189
f 91 126 214
f 126 201 214
f 201 91 214
f 409 136 249
f 249 136 135
f 61 242 250
f 280 240 253
f 179 192 227
f 192 177 218
f 301 283 297
f 227 208 104
f 227 192 218
f 226 225 142
f 225 219 142
f 126 88 90
f 230 125 127
f 122 123 213
f 407 146 114
f 128 146 407
f 146 128 114
f 435 370 335
f 335 370 253
f 407 137 135
f 135 136 407
f 540 410 388
f 525 388 410
f 428 213 229
f 428 229 205
f 227 218 179
f 179 218 177
f 192 179 177
f 435 240 450
f 230 148 205
f 205 125 230
f 148 125 205
f 229 213 148
f 229 148 205
f 418 233 474
f 233 470 474
f 470 233 418
f 198 119 232
f 232 119 127
f 478 460 431
f 230 127 232
f 658 545 661
f 661 545 630
f 377 332 320
f 341 320 332
f 649 629 659
f 659 628 649
f 422 124 413
f 517 458 475
f 565 181 163
f 416 428 537
f 428 416 213
f 38 69 235
f 235 132 38
f 219 208 399
f 607 496 563
f 607 596 496
f 391 320 333
f 435 61 240
f 411 185 170
f 390 444 448
f 390 392 444
f 137 118 135
f 529 146 128
f 146 138 128
f 314 296 294
f 241 80 244
f 244 80 240
f 447 76 427
f 241 76 447
f 108 134 235
f 245 214 201
f 418 420 428
f 411 177 548
f 427 129 447
f 391 278 323
f 129 90 250
f 333 320 332
f 332 253 333
f 141 210 147
f 337 278 391
f 392 235 130
f 313 288 325
f 325 246 313
f 389 324 110
f 324 237 110
f 312 254 316
f 312 255 254
f 331 282 280
f 548 177 140
f 301 280 289
f 289 280 282
f 194 193 558
f 457 438 503
f 361 305 271
f 406 109 103
f 21 296 315
f 393 278 337
f 393 337 333
f 268 306 273
f 264 278 355
f 312 271 305
f 301 297 332
f 289 246 301
f 137 139 409
f 409 114 137
f 373 277 374
f 240 61 328
f 334 312 305
f 309 344 360
f 319 259 263
f 329 282 274
f 329 274 281
f 274 282 331
f 309 263 344
f 296 315 321
f 277 268 273
f 301 246 280
f 280 246 240
f 358 263 360
f 528 400 410
f 285 110 82
f 341 316 320
f 356 300 275
f 244 246 330
f 266 257 293
f 540 519 174
f 174 519 521
f 308 277 273
f 362 306 268
f 377 320 316
f 314 291 276
f 280 287 317
f 390 324 389
f 349 260 258
f 590 152 591
f 165 152 590
f 432 473 493
f 374 327 373
f 360 263 309
f 359 344 270
f 565 163 671
f 656 565 671
f 656 163 565
f 332 320 323
f 316 272 312
f 314 276 353
f 315 279 48
f 285 82 71
f 48 279 285
f 614 655 629
f 311 291 292
f 311 292 294
f 540 103 115
f 540 115 142
f 246 289 313
f 631 630 668
f 631 641 630
f 315 48 21
f 525 407 145
f 103 407 525
f 525 145 103
f 529 128 137
f 448 132 390
f 535 402 568
f 409 118 114
f 537 456 416
f 571 164 579
f 194 195 527
f 527 193 194
f 312 304 316
f 349 292 260
f 301 253 240
f 297 289 301
f 367 366 363
f 275 366 367
f 379 310 352
f 379 352 350
f 362 271 382
f 382 271 380
f 383 202 197
f 383 197 200
f 200 202 383
f 202 200 197
f 285 263 303
f 303 263 279
f 279 263 285
f 303 266 263
f 279 266 303
f 257 279 295
f 367 290 275
f 321 275 290
f 528 481 467
f 481 442 467
f 411 170 177
f 262 323 346
f 344 359 381
f 272 304 312
f 258 343 349
f 304 272 316
f 319 266 293
f 315 307 275
f 369 347 256
f 340 256 347
f 262 343 345
f 311 273 304
f 308 273 311
f 311 294 308
f 311 276 291
f 304 291 276
f 448 214 420
f 324 344 381
f 381 264 324
f 308 296 311
f 311 296 21
f 311 21 308
f 278 264 347
f 503 438 422
f 381 360 324
f 313 289 282
f 330 246 247
f 296 295 315
f 315 295 279
f 315 296 307
f 325 288 246
f 341 323 61
f 368 264 381
f 381 359 368
f 368 359 264
f 413 395 210
f 299 322 363
f 359 354 264
f 395 248 147
f 146 248 395
f 146 147 248
f 275 300 365
f 557 184 154
f 275 365 366
f 360 285 324
f 344 324 285
f 321 295 296
f 257 295 321
f 336 287 288
f 288 287 326
f 382 304 276
f 397 387 348
f 394 387 397
f 397 348 394
f 270 259 298
f 285 132 110
f 377 271 305
f 334 305 271
f 358 303 263
f 339 293 290
f 321 290 293
f 385 352 310
f 142 219 399
f 399 226 142
f 293 257 321
f 256 270 298
f 346 322 299
f 380 268 306
f 382 311 304
f 370 278 393
f 393 333 370
f 359 270 342
f 359 342 354
f 354 342 270
f 356 314 300
f 322 323 348
f 323 322 261
f 360 132 285
f 378 265 380
f 380 306 378
f 378 306 265
f 326 246 288
f 326 287 246
f 246 287 280
f 274 301 332
f 301 274 253
f 482 415 416
f 424 416 415
f 346 261 322
f 288 289 327
f 327 289 313
f 313 289 288
f 394 337 371
f 394 371 387
f 387 355 347
f 128 138 116
f 283 289 297
f 319 263 266
f 349 294 292
f 318 306 268
f 327 269 277
f 379 310 334
f 334 310 281
f 327 313 281
f 313 282 281
f 274 282 334
f 334 281 274
f 334 282 301
f 334 301 274
f 301 282 274
f 334 283 301
f 274 332 334
f 289 283 334
f 334 301 289
f 353 343 262
f 302 280 253
f 379 334 377
f 377 310 379
f 302 253 274
f 311 351 365
f 366 365 300
f 259 319 339
f 339 293 259
f 298 293 339
f 259 293 298
f 382 365 351
f 382 351 311
f 371 337 370
f 370 337 278
f 349 291 314
f 343 291 349
f 314 294 349
f 364 299 262
f 367 293 339
f 256 267 353
f 379 350 305
f 305 350 352
f 426 236 129
f 426 129 425
f 363 290 367
f 463 418 428
f 526 146 395
f 599 498 496
f 341 312 316
f 341 255 312
f 332 297 333
f 341 332 323
f 345 292 304
f 304 292 291
f 340 347 354
f 354 256 340
f 360 303 358
f 285 303 360
f 244 330 450
f 380 271 268
f 362 268 271
f 354 270 256
f 346 299 364
f 364 262 346
f 375 327 281
f 380 265 361
f 361 265 318
f 323 262 345
f 254 292 345
f 292 254 260
f 377 352 271
f 377 305 352
f 372 255 341
f 254 323 345
f 316 254 345
f 372 260 255
f 260 254 255
f 345 258 372
f 370 129 236
f 250 236 129
f 258 260 372
f 278 347 369
f 501 479 458
f 323 338 348
f 323 320 338
f 345 343 258
f 318 269 361
f 382 276 365
f 365 276 311
f 353 276 291
f 353 291 343
f 353 262 299
f 375 361 269
f 379 305 361
f 379 361 265
f 385 274 352
f 232 148 230
f 497 432 493
f 467 251 528
f 506 422 508
f 281 282 329
f 361 271 380
f 380 271 352
f 316 304 362
f 374 277 21
f 308 21 277
f 376 373 327
f 357 265 361
f 304 273 362
f 362 273 306
f 339 319 367
f 363 322 256
f 353 299 363
f 363 256 353
f 363 256 298
f 298 290 363
f 339 290 298
f 363 267 256
f 356 267 363
f 353 267 356
f 363 300 356
f 316 362 382
f 321 315 275
f 347 264 354
f 131 226 399
f 226 131 179
f 380 352 382
f 382 352 316
f 254 345 372
f 372 323 254
f 369 256 322
f 341 61 372
f 372 61 323
f 370 297 61
f 436 388 252
f 436 287 423
f 384 423 287
f 333 301 332
f 447 446 450
f 450 280 447
f 436 414 396
f 436 396 384
f 384 396 414
f 436 423 430
f 430 423 384
f 448 415 245
f 420 245 415
f 370 301 297
f 333 297 301
f 436 384 251
f 460 438 456
f 436 430 414
f 377 274 310
f 352 274 377
f 625 565 579
f 357 361 375
f 375 269 327
f 377 316 352
f 376 277 373
f 448 424 415
f 306 318 265
f 271 312 334
f 327 277 376
f 377 334 332
f 132 360 381
f 381 324 132
f 310 274 385
f 390 132 324
f 391 337 394
f 391 387 337
f 591 165 441
f 441 590 591
f 526 138 146
f 395 138 526
f 424 426 431
f 426 425 431
f 348 320 391
f 391 323 348
f 605 401 607
f 541 474 159
f 448 474 541
f 541 159 448
f 406 521 544
f 483 252 409
f 531 467 402
f 402 467 481
f 521 103 540
f 563 498 595
f 394 348 391
f 147 210 395
f 425 129 424
f 253 370 333
f 245 201 448
f 482 424 448
f 642 627 648
f 591 557 188
f 157 188 557
f 413 124 386
f 532 489 500
f 158 571 579
f 586 583 501
f 584 559 499
f 501 510 586
f 642 551 661
f 591 152 176
f 497 443 487
f 412 461 522
f 435 253 332
f 435 332 301
f 435 301 370
f 435 61 297
f 328 61 435
f 370 61 435
f 667 650 610
f 466 145 136
f 431 425 421
f 625 564 571
f 625 571 172
f 174 410 578
f 174 400 410
f 552 549 548
f 552 548 140
f 667 655 614
f 436 485 568
f 427 419 129
f 577 455 556
f 560 453 175
f 140 453 455
f 557 154 188
f 574 231 527
f 535 467 531
f 435 297 240
f 435 240 328
f 556 455 453
f 441 165 453
f 604 552 597
f 584 398 492
f 518 473 443
f 518 443 493
f 654 620 622
f 641 620 654
f 654 622 641
f 644 632 650
f 462 434 428
f 622 630 641
f 585 461 568
f 463 428 434
f 437 250 370
f 434 418 463
f 429 124 491
f 491 422 429
f 508 124 506
f 506 124 422
f 427 76 81
f 392 390 235
f 370 435 437
f 452 133 231
f 609 602 584
f 582 602 609
f 582 584 602
f 607 596 597
f 607 553 596
f 596 553 597
f 472 404 405
f 454 405 404
f 287 436 464
f 430 384 336
f 558 527 194
f 448 159 132
f 448 201 214
f 574 527 586
f 586 510 574
f 589 157 562
f 287 403 445
f 434 417 232
f 504 470 465
f 445 403 317
f 445 317 287
f 437 129 370
f 370 236 437
f 437 236 421
f 426 421 236
f 460 424 431
f 481 440 489
f 479 465 232
f 450 246 280
f 491 287 446
f 426 129 437
f 437 419 426
f 491 280 317
f 317 403 491
f 435 419 437
f 426 424 129
f 438 426 419
f 124 484 495
f 516 505 459
f 535 485 467
f 512 433 505
f 433 459 505
f 475 196 471
f 446 287 464
f 431 421 426
f 519 174 454
f 466 454 174
f 427 81 116
f 241 447 450
f 450 330 246
f 246 330 446
f 606 534 561
f 606 175 534
f 534 175 561
f 210 487 509
f 479 434 504
f 175 178 165
f 236 421 425
f 250 421 236
f 483 137 128
f 139 137 483
f 483 128 139
f 532 400 522
f 647 619 628
f 530 513 501
f 530 501 458
f 446 117 81
f 446 81 241
f 330 247 446
f 537 515 456
f 446 247 246
f 414 430 451
f 451 384 414
f 430 336 451
f 451 336 288
f 451 327 374
f 470 233 465
f 183 534 550
f 141 432 487
f 502 420 415
f 585 522 461
f 665 629 628
f 610 628 629
f 566 471 556
f 386 138 413
f 408 449 473
f 449 408 180
f 473 432 408
f 473 449 587
f 210 488 413
f 454 404 399
f 566 556 560
f 579 164 172
f 172 571 579
f 571 172 164
f 405 454 455
f 516 459 433
f 516 433 511
f 600 598 594
f 537 415 482
f 531 402 535
f 388 521 540
f 635 620 641
f 635 622 620
f 196 449 180
f 458 443 449
f 484 116 495
f 139 116 484
f 494 431 426
f 479 232 417
f 479 417 434
f 500 442 398
f 490 429 438
f 442 440 467
f 434 143 470
f 428 420 502
f 584 580 398
f 470 143 233
f 521 404 472
f 597 453 604
f 441 453 597
f 609 584 668
f 668 584 639
f 639 584 609
f 507 487 417
f 586 527 120
f 586 120 538
f 543 452 561
f 605 568 461
f 438 460 478
f 595 496 580
f 584 496 595
f 495 138 422
f 495 422 124
f 422 138 124
f 528 522 400
f 532 398 400
f 139 446 464
f 446 139 484
f 252 249 409
f 465 233 198
f 503 422 457
f 489 440 442
f 597 140 169
f 573 471 449
f 476 471 573
f 573 449 476
f 547 161 579
f 534 570 579
f 589 570 158
f 158 570 571
f 589 158 555
f 538 470 504
f 231 182 513
f 505 457 469
f 546 153 599
f 507 462 213
f 417 462 507
f 540 174 410
f 410 174 521
f 605 553 600
f 474 448 420
f 474 420 159
f 457 422 469
f 516 511 457
f 491 429 427
f 429 419 427
f 656 626 623
f 473 405 408
f 140 549 552
f 549 454 578
f 556 536 577
f 556 476 536
f 622 652 654
f 651 652 622
f 641 636 633
f 460 515 537
f 537 482 460
f 629 649 614
f 545 551 155
f 578 131 399
f 578 399 466
f 568 522 528
f 499 160 596
f 593 580 532
f 500 580 593
f 593 532 500
f 540 142 466
f 491 427 484
f 502 420 418
f 474 420 502
f 502 418 474
f 462 417 479
f 516 457 505
f 561 175 480
f 561 480 520
f 507 213 514
f 493 473 518
f 137 407 525
f 181 642 648
f 484 116 117
f 484 117 446
f 484 427 116
f 484 429 491
f 490 419 429
f 504 465 538
f 491 403 287
f 492 398 451
f 451 398 486
f 388 525 529
f 486 398 384
f 442 384 398
f 486 384 451
f 495 116 138
f 458 417 487
f 487 443 458
f 417 458 479
f 422 438 508
f 508 429 422
f 452 543 171
f 549 399 131
f 449 471 536
f 536 476 449
f 438 419 490
f 386 124 138
f 174 410 588
f 120 159 538
f 590 158 165
f 519 399 404
f 519 454 399
f 466 399 454
f 579 570 158
f 534 158 570
f 550 120 558
f 558 212 550
f 561 520 534
f 519 410 174
f 466 410 519
f 574 475 452
f 562 155 571
f 543 183 539
f 534 183 543
f 578 399 549
f 578 549 131
f 561 534 543
f 591 176 546
f 496 498 563
f 491 124 508
f 508 422 491
f 412 549 588
f 588 549 578
f 588 578 412
f 538 195 194
f 510 182 538
f 538 465 510
f 528 410 568
f 182 510 513
f 513 510 231
f 513 510 501
f 505 469 512
f 512 413 488
f 512 422 413
f 520 158 534
f 520 175 158
f 527 171 539
f 527 189 171
f 568 402 522
f 522 402 481
f 173 212 565
f 544 472 406
f 559 584 582
f 510 465 504
f 514 457 511
f 511 487 514
f 487 507 514
f 566 480 471
f 471 452 475
f 584 499 184
f 584 184 153
f 153 499 584
f 538 194 527
f 527 195 538
f 648 625 181
f 641 633 632
f 658 627 660
f 660 627 616
f 616 627 658
f 646 627 660
f 660 657 646
f 616 657 660
f 412 548 549
f 517 475 530
f 588 400 398
f 2 617 638
f 600 599 553
f 406 103 521
f 472 405 406
f 625 164 162
f 625 172 164
f 586 510 504
f 538 510 586
f 529 137 252
f 525 252 137
f 635 620 642
f 635 632 620
f 591 188 176
f 176 157 591
f 557 188 186
f 141 147 544
f 607 548 412
f 544 432 141
f 571 564 579
f 525 136 252
f 466 136 525
f 597 548 607
f 398 532 588
f 525 410 466
f 595 498 594
f 606 452 471
f 544 147 406
f 664 557 599
f 625 163 181
f 180 405 536
f 536 196 180
f 550 212 144
f 574 510 513
f 492 451 584
f 408 432 544
f 466 519 540
f 648 627 663
f 660 627 551
f 538 182 231
f 538 231 510
f 538 474 470
f 420 474 538
f 538 159 420
f 606 561 480
f 556 453 560
f 412 400 588
f 502 415 541
f 541 415 537
f 541 537 428
f 541 428 502
f 587 449 443
f 587 443 473
f 539 171 543
f 661 551 658
f 661 658 642
f 658 551 642
f 544 406 405
f 473 408 544
f 544 405 473
f 661 616 652
f 658 652 616
f 647 611 638
f 552 453 140
f 565 163 173
f 175 471 480
f 650 632 633
f 578 454 399
f 558 193 527
f 591 157 590
f 558 527 539
f 556 471 476
f 589 555 590
f 650 633 612
f 606 471 175
f 504 501 583
f 572 520 480
f 560 520 572
f 572 480 560
f 557 591 599
f 577 536 455
f 574 452 231
f 666 648 626
f 626 648 663
f 560 175 520
f 557 554 157
f 542 579 608
f 554 545 155
f 539 542 558
f 558 144 212
f 581 388 568
f 388 436 568
f 605 461 412
f 638 612 633
f 565 212 163
f 562 157 155
f 480 452 606
f 568 485 535
f 565 144 558
f 412 401 567
f 625 565 163
f 615 618 620
f 642 622 635
f 673 159 120
f 609 636 639
f 609 584 636
f 568 522 585
f 578 466 174
f 504 583 586
f 558 120 574
f 574 527 558
f 574 120 212
f 574 212 527
f 588 400 174
f 443 497 575
f 575 497 493
f 575 493 443
f 451 374 584
f 588 401 412
f 605 412 568
f 496 532 580
f 595 598 600
f 595 594 598
f 651 622 642
f 659 623 649
f 659 614 623
f 623 614 649
f 568 410 581
f 581 521 388
f 410 521 581
f 581 521 472
f 544 521 581
f 581 472 544
f 578 410 581
f 581 410 400
f 400 568 581
f 581 412 578
f 581 568 412
f 606 178 175
f 599 499 559
f 606 175 453
f 453 178 606
f 552 140 597
f 625 162 181
f 172 181 162
f 588 532 401
f 590 555 158
f 157 589 590
f 640 212 159
f 624 212 640
f 599 596 546
f 638 610 612
f 619 612 610
f 650 619 610
f 160 546 596
f 596 401 532
f 596 532 496
f 665 628 659
f 600 553 590
f 599 591 553
f 553 591 546
f 597 553 546
f 597 411 548
f 597 185 411
f 546 185 597
f 597 591 590
f 597 590 553
f 162 155 642
f 638 611 610
f 642 181 172
f 608 579 565
f 623 626 663
f 639 662 634
f 673 120 144
f 673 144 212
f 636 641 639
f 638 633 2
f 643 646 663
f 663 627 643
f 643 627 646
f 563 595 600
f 600 590 605
f 605 590 441
f 605 441 597
f 605 567 401
f 412 567 605
f 608 565 542
f 181 565 625
f 620 632 644
f 618 614 616
f 615 650 667
f 654 630 622
f 650 612 619
f 630 545 554
f 651 616 661
f 670 620 618
f 673 212 640
f 637 554 155
f 653 631 621
f 625 579 564
f 659 649 672
f 157 554 637
f 637 155 157
f 613 163 656
f 672 623 659
f 636 584 374
f 656 624 565
f 663 646 623
f 653 639 654
f 661 652 651
f 624 144 565
f 640 212 144
f 657 616 614
f 664 594 559
f 599 594 664
f 664 554 557
f 668 582 609
f 664 582 668
f 664 559 582
f 641 632 635
f 659 623 646
f 172 162 642
f 551 627 642
f 659 629 665
f 592 551 545
f 671 159 212
f 642 155 551
f 662 653 621
f 639 653 662
f 658 621 652
f 654 652 653
f 653 652 631
f 640 144 624
f 636 21 633
f 662 621 669
f 615 620 644
f 671 163 613
f 642 620 651
f 662 646 614
f 650 615 651
f 651 644 650
f 615 644 651
f 671 2 159
f 619 613 672
f 671 613 619
f 673 645 159
f 614 659 662
f 656 623 613
f 626 656 666
f 664 557 630
f 592 545 658
f 666 625 648
f 672 613 623
f 661 630 631
f 631 652 661
f 661 652 621
f 661 621 658
f 662 659 646
f 669 634 662
f 639 634 669
f 667 629 655
f 668 557 664
f 668 630 557
f 670 618 651
f 651 620 670
f 671 617 2
f 640 645 673
